PathFileType	4	(X/Y/Z)	s01c0403.trc
DataRate	CameraRate	NumFrames	NumMarkers	Units	OrigDataRate	OrigDataStartFrame	OrigNumFrames
200	200	4	47	mm	200	1750	2000
Frame#	Time	racr			lacr			c7			jug			rlel			rdr			llel			ldr			lic			ric			lasi			rasi			rpsi			lpsi			rgt			lgt			rth1			rth2			rth3			rth4			rlfc			rsh1			rsh2			rsh3			rsh4			rlmal			rmmal			rcal			rtoe			rmt5			lth1			lth2			lth4			lth3			llfc			lsh1			lsh2			lsh3			lsh4			llmal			lmmal			lcal			ltoe			lmt5			SBIKE			LBIKE			RBIKE			
		X1	Y1	Z1	X2	Y2	Z2	X3	Y3	Z3	X4	Y4	Z4	X5	Y5	Z5	X6	Y6	Z6	X7	Y7	Z7	X8	Y8	Z8	X9	Y9	Z9	X10	Y10	Z10	X11	Y11	Z11	X12	Y12	Z12	X13	Y13	Z13	X14	Y14	Z14	X15	Y15	Z15	X16	Y16	Z16	X17	Y17	Z17	X18	Y18	Z18	X19	Y19	Z19	X20	Y20	Z20	X21	Y21	Z21	X22	Y22	Z22	X23	Y23	Z23	X24	Y24	Z24	X25	Y25	Z25	X26	Y26	Z26	X27	Y27	Z27	X28	Y28	Z28	X29	Y29	Z29	X30	Y30	Z30	X31	Y31	Z31	X32	Y32	Z32	X33	Y33	Z33	X34	Y34	Z34	X35	Y35	Z35	X36	Y36	Z36	X37	Y37	Z37	X38	Y38	Z38	X39	Y39	Z39	X40	Y40	Z40	X41	Y41	Z41	X42	Y42	Z42	X43	Y43	Z43	X44	Y44	Z44	X45	Y45	Z45	X46	Y46	Z46	X47	Y47	Z47	
1750	8.7500	734.096863	1334.505859	-33.542942	772.540588	1264.731689	-404.192902	748.140015	1395.142944	-215.060211	721.756470	1223.926270	-217.337982	590.805176	1089.035767	73.033440	712.718689	893.651184	-23.524693	583.614746	1086.026245	-558.549866	699.273621	897.449524	-462.551575	392.611145	1192.975220	-418.044586	350.512756	1219.110596	-98.087334	404.911469	1152.829346	-430.654572	379.217773	1173.455566	-129.756729	235.047943	1261.446533	-217.836105	243.904617	1256.016479	-324.561279	304.272644	1126.174438	-64.115074	285.332489	1066.001831	-442.475555	399.820801	1045.510742	-45.499458	475.462067	1010.298706	-41.649960	554.258484	965.436646	-46.779758	502.172882	1057.333130	-60.411800	620.669739	883.539429	-65.499138	532.847412	818.274841	-42.674751	468.791809	762.498169	-50.001419	396.598175	712.363953	-66.149307	501.442047	726.453125	-84.436775	283.940369	641.811646	-95.113327	327.666809	626.499939	-170.236954	232.284012	649.931335	-152.577759	403.774200	439.557037	-135.137085	310.320190	496.287811	-67.782112	279.106079	947.168030	-453.243378	304.397247	860.952576	-454.463562	355.713379	874.252136	-455.767853	317.502380	778.001953	-439.222534	333.237579	653.136169	-424.241882	257.080109	576.274170	-455.245209	223.612396	496.707642	-448.288422	188.824936	419.171661	-435.618805	277.616333	476.702362	-425.910248	144.097290	301.046875	-419.415588	171.404190	298.189941	-343.881897	95.476990	301.819580	-381.460114	305.793243	121.729027	-373.798462	209.816864	161.482925	-444.783386	-225.514893	892.599060	-255.057495	-13.367677	84.551689	-458.052856	-23.179222	80.956932	-57.993492	
1751	8.7550	733.324768	1333.208496	-31.687851	772.468262	1264.856079	-402.034088	748.012817	1395.051880	-212.728958	721.365173	1224.016968	-215.958984	589.062988	1087.875977	73.881828	712.440918	893.857300	-23.630419	584.620178	1086.531250	-557.370178	699.727234	897.468201	-462.321167	393.302490	1193.923462	-417.281219	349.025208	1220.303833	-97.791206	405.429779	1153.887695	-430.131317	377.741089	1176.119385	-128.077332	234.602600	1262.472168	-218.166443	243.990982	1257.105103	-324.834381	303.709381	1126.741455	-64.620270	286.619934	1067.097656	-443.033539	398.939728	1046.018555	-46.271084	474.625702	1010.811768	-42.341370	553.536316	966.194397	-47.044704	501.352722	1058.145752	-59.950603	620.214172	886.234985	-65.606140	535.130676	819.882996	-43.147369	472.120087	762.664368	-50.026730	400.907501	711.272766	-66.520821	505.418518	727.287537	-84.763145	287.613159	638.161926	-95.107704	331.658783	624.001160	-170.036575	235.130600	644.051514	-152.029175	414.272644	440.259430	-134.831177	318.754944	493.305389	-67.277847	280.338501	948.511230	-453.145813	305.148926	862.109253	-454.131531	356.541504	875.288147	-456.529694	318.182983	779.232971	-438.497223	333.524963	654.065247	-423.974579	255.861420	578.849792	-454.717957	220.749237	500.026855	-447.692688	184.393814	423.232513	-434.924896	274.402222	478.940460	-425.351837	137.195999	306.072998	-419.034393	165.429260	301.942627	-343.701721	88.524292	307.345520	-380.729797	295.679443	123.648758	-374.136475	200.440002	165.407120	-444.633759	-225.530365	892.648438	-254.898392	-13.377850	84.636536	-457.998016	-23.195385	80.974014	-57.971378	
1752	8.7600	732.680298	1331.771973	-29.835730	772.343994	1264.881592	-400.009369	747.851257	1394.473999	-210.197632	720.979309	1224.126465	-214.625763	587.277527	1086.616821	74.648949	712.043030	894.173889	-23.735134	585.487000	1086.973267	-556.188293	700.165833	897.498840	-462.114990	393.619629	1195.529419	-416.720764	347.411133	1221.848755	-97.579567	406.042725	1155.416016	-429.847717	377.061371	1177.537598	-127.568634	234.065598	1263.737305	-218.416367	243.961487	1258.449585	-325.031403	303.103607	1127.336792	-65.194275	288.022064	1068.400635	-443.563202	398.141541	1046.328735	-46.975803	473.649780	1011.057678	-43.033386	552.570862	966.421143	-47.418446	500.634308	1058.541626	-59.906116	620.207397	888.136780	-66.760193	536.658203	820.267944	-44.139828	474.517120	761.948425	-50.422062	404.018616	709.650757	-67.001144	508.333984	726.967285	-85.006531	290.760529	633.578918	-94.893951	335.141449	620.702576	-169.841171	237.609604	637.078491	-151.441589	424.535980	440.598969	-134.480240	326.910400	489.559662	-66.633598	282.072906	949.849365	-452.897461	306.755188	863.317505	-453.440460	358.210480	876.543945	-456.489166	320.015900	780.622742	-437.403259	334.972168	655.242920	-423.376160	255.715057	581.640137	-453.940338	218.808960	503.728210	-446.855194	180.825287	427.683167	-434.084167	272.063873	481.416595	-424.454468	131.059799	311.540009	-418.353210	159.866089	306.343109	-343.381836	82.232536	313.631348	-379.864685	285.698914	125.734337	-374.290070	191.399521	169.968933	-444.382355	-225.541626	892.702820	-254.749435	-13.399723	84.711006	-457.973389	-23.201717	80.992615	-57.954418	
1753	8.7650	732.136108	1330.114868	-28.021936	772.185486	1264.977417	-398.062561	747.701172	1393.963623	-207.906174	720.600342	1224.255249	-213.341934	585.320801	1085.451416	75.416916	711.626343	894.357300	-23.827892	586.255981	1087.380371	-555.002380	700.548279	897.549255	-461.934875	393.712341	1197.588257	-416.399353	345.671906	1223.533203	-97.461922	406.456268	1157.234253	-429.633453	376.264526	1178.943359	-126.904015	233.692474	1264.619385	-218.753021	243.812439	1259.873535	-325.098236	302.397766	1127.816162	-65.806213	289.406219	1069.836060	-444.023407	397.336395	1046.495728	-47.719913	472.778412	1010.893738	-43.870495	551.458496	966.055237	-48.047009	499.972290	1058.479126	-60.160805	619.572083	888.981934	-67.627014	537.447327	819.495483	-45.479362	475.791290	760.426392	-51.178188	405.938416	707.327026	-67.296547	510.172882	725.348572	-85.243828	293.708008	627.837769	-94.493744	338.205566	616.494934	-169.680145	239.802948	629.344604	-150.628571	433.934692	440.355103	-133.990433	334.792236	485.174896	-65.997795	284.304321	950.944214	-452.485413	309.155945	864.535278	-452.472229	360.602173	878.098755	-455.767242	323.031158	782.021729	-436.080292	337.461548	656.686707	-422.460144	256.496002	584.804199	-453.024658	217.783340	507.732605	-445.835785	178.009964	432.628967	-433.123840	270.559937	484.142578	-423.363129	125.456505	317.952942	-417.881409	154.752335	311.399750	-342.912811	76.585526	320.782745	-378.910126	275.963684	128.381378	-374.349274	182.404739	175.044403	-444.352997	-225.528580	892.753540	-254.545425	-13.385489	84.786568	-457.921539	-23.197706	81.012352	-57.923962	
